<svg id="Capa_1" data-name="Capa 1" xmlns="http://www.w3.org/2000/svg" viewBox="0 0 123 44"><defs><style>.cls-1{fill:#454e5f;}.cls-2{fill:#c82b35;}</style></defs><title>Seytu_Gris_123px</title><path class="cls-1" d="M8.92,32c-4,0-7-1.59-8.78-4.59L0,27.14l2.24-1.42.18.33a6.68,6.68,0,0,0,5.84,3.84c3.89,0,6.41-2.33,6.41-5.94,0-4.31-3.35-5.57-6.89-6.91C4,15.64.15,14.17.15,9S4.22.15,9.82.15c5,0,7,2.36,8.07,4.13l.15.25-2,1.22-.18-.3C14.5,3.22,13.14,2,9.92,2A5.69,5.69,0,0,0,4.37,7.67c0,4.23,3.35,5.48,6.9,6.8,3.85,1.43,7.83,2.92,7.83,8.21S14.62,32,8.92,32Z"/><path class="cls-1" d="M42.86,31.15H25.18V1H42.26V3.06H29.4V14.75H41.45v2.08H29.4V29.07H42.86v2.08Z"/><path class="cls-1" d="M59.17,31.15h-4V16.07L43.83,1h4.54l9.71,12.57L67.41,1h2.32L59.17,15.74V31.15Z"/><path class="cls-1" d="M83.24,31.15H79V3.06H70.43V1H91.83V3.06H83.24v28.1Z"/><path class="cls-1" d="M109.05,32c-7.64,0-12.19-4-12.19-10.71V1h4.22V20.9c0,5.63,3.06,9,8.17,9,4.71,0,7.52-2.94,7.52-7.85V8h2.71V22.49c0,4.37-2.73,9.48-10.43,9.48Z"/><polygon class="cls-2" points="115.66 7.62 113.28 7.62 118.62 0.98 123 0.98 115.66 7.62 115.66 7.62"/><path class="cls-2" d="M33.79,39.87a1.81,1.81,0,0,0-1.42-.9c-1.2,0-1.81.88-1.81,2.3,0,1.11.56,2.18,1.69,2.18a1.77,1.77,0,0,0,1.63-1.08l.33.16a2.19,2.19,0,0,1-2.14,1.3,2.6,2.6,0,0,1,.09-5.19,2.34,2.34,0,0,1,1.9,1Z"/><path class="cls-2" d="M39.45,38.66A2.6,2.6,0,1,1,37,41.25,2.46,2.46,0,0,1,39.45,38.66Zm0,4.87c1.18,0,1.45-1.32,1.45-2.28S40.63,39,39.45,39,38,40.3,38,41.25,38.27,43.53,39.45,43.53Z"/><path class="cls-2" d="M45.44,42.83a1.11,1.11,0,0,0,1,.63.88.88,0,0,0,.88-.85c0-1.43-2.31-.75-2.31-2.51a1.49,1.49,0,0,1,1.58-1.44,1.65,1.65,0,0,1,1.48.88l-.32.2a1.07,1.07,0,0,0-1-.7.79.79,0,0,0-.8.86c0,1.15,2.31.67,2.31,2.44a1.55,1.55,0,0,1-1.62,1.5,1.64,1.64,0,0,1-1.55-.77Z"/><path class="cls-2" d="M51.67,38.79h1l1.41,3.33,1.32-3.33h1v4.92h-.93v-4h0l-1.61,4.09h0l-1.74-4.13h0v4h-.39Z"/><path class="cls-2" d="M60.05,43.71V38.79H63v.32H61V41h1.87v.32H61v2.06h2v.32Zm2.35-6.46-1,1.15h-.35l.72-1.15Z"/><path class="cls-2" d="M66.94,43.71v-4.6H66v-.32h2.88v.32h-1v4.6Z"/><path class="cls-2" d="M72.12,43.71V38.79H73v4.92Z"/><path class="cls-2" d="M80.65,39.87a1.81,1.81,0,0,0-1.42-.9c-1.2,0-1.81.88-1.81,2.3,0,1.11.56,2.18,1.69,2.18a1.77,1.77,0,0,0,1.63-1.08l.33.16a2.2,2.2,0,0,1-2.14,1.3A2.6,2.6,0,0,1,79,38.66a2.34,2.34,0,0,1,1.9,1Z"/><path class="cls-2" d="M87.87,43.71h-.95l-.52-1.28H84.7l-.49,1.28h-.43l2-5.05h0ZM85.55,40.3l-.71,1.8h1.43Z"/></svg>